<svg id="Layer_1" data-name="Layer 1" xmlns="http://www.w3.org/2000/svg" viewBox="0 0 340.61 113.88"><defs><style>.cls-1{fill:#d65a31;}.cls-2{fill:#14274e;}</style></defs><path class="cls-1" d="M184.19,215.51q-8-20.41-16.07-40.81c-1-2.55-2.14-3-4.76-2.07l-44.85,16.52c-2.44.91-3,2.11-2.05,4.57,1.2,3.13,2.43,6.24,3.66,9.35q6.19,15.74,12.39,31.48c.56,1.43,1.26,2.61,3.14,2.65.38-.11.89-.23,1.38-.41l45-16.57C184.65,219.27,185.19,218.06,184.19,215.51ZM137,231c-4.94-12.52-9.8-24.87-14.76-37.46l41.49-15.26c4.93,12.53,9.8,24.89,14.75,37.44Z" transform="translate(-69.84 -155.85)"/><path class="cls-1" d="M183.75,229.07a3.93,3.93,0,0,1-1.83,2.48c-2.81,1.26-5.75,2.22-8.64,3.28l-41.34,15.22c-3.34,1.23-4.22.84-5.52-2.45L93.27,163.42c-.24-.61-.5-1.2-.8-1.89-7.08.64-13.32,2.65-17.4,8.93-1.1,1.69-2.61,2.1-4,1.18s-1.57-2.54-.49-4.18c4.79-7.2,11.8-10.59,20.17-11.41,5.29-.52,5.29-.38,7.25,4.6l32.31,82c.23.59.5,1.17.82,1.93l14.12-5.2c11.32-4.16,22.63-8.35,34-12.45a5.31,5.31,0,0,1,3.32,0A2.56,2.56,0,0,1,183.75,229.07Z" transform="translate(-69.84 -155.85)"/><path class="cls-1" d="M181.49,264.42a14.4,14.4,0,0,0-2-.05H113.74c3.62-1.3,6.74-3.2,8.61-6.7a14.33,14.33,0,0,0,1.19-10.88c-1.68-6.17-7.05-9.82-13.92-9.54a13,13,0,0,0-12.35,10.53c-1.44,7.59,1.73,12.7,10.52,16.59H74.09c-2.93,0-4.21.8-4.25,2.62s1.29,2.75,4.35,2.75H179.42a13,13,0,0,0,2.16-.11,2.42,2.42,0,0,0,2.15-2.63A2.44,2.44,0,0,0,181.49,264.42Zm-79.1-13.53a7.7,7.7,0,0,1,8.07-8.22c5,0,8.15,3.14,8.16,8.08s-3.24,8.16-8.12,8.15A7.73,7.73,0,0,1,102.39,250.89Z" transform="translate(-69.84 -155.85)"/><path class="cls-1" d="M155.28,197.23c-4.93,1.94-9.92,3.71-14.88,5.53a1.78,1.78,0,0,1-.39.07l-.35.36a10.72,10.72,0,0,1-2.26-2.31,2.17,2.17,0,0,1,1.26-3.09c4.87-1.9,9.77-3.73,14.71-5.43a2.39,2.39,0,0,1,3.1,1.7A2.31,2.31,0,0,1,155.28,197.23Z" transform="translate(-69.84 -155.85)"/><path class="cls-2" d="M214.08,222.43c.17,10.34,6.77,14.6,14.42,14.6a27.5,27.5,0,0,0,11.63-2.18l1.31,5.48a34.19,34.19,0,0,1-14,2.6c-12.94,0-20.67-8.51-20.67-21.19s7.47-22.67,19.72-22.67c13.72,0,17.37,12.07,17.37,19.8a28.08,28.08,0,0,1-.26,3.56ZM236.49,217c.08-4.86-2-12.42-10.6-12.42-7.73,0-11.12,7.12-11.72,12.42Z" transform="translate(-69.84 -155.85)"/><path class="cls-2" d="M294.5,240.15c-2.78,1.39-8.33,2.78-15.46,2.78-16.5,0-28.92-10.42-28.92-29.62,0-18.32,12.42-30.74,30.57-30.74,7.3,0,11.9,1.56,13.9,2.6l-1.82,6.17A27.55,27.55,0,0,0,281,188.91c-13.72,0-22.84,8.77-22.84,24.14,0,14.33,8.25,23.54,22.5,23.54a30.19,30.19,0,0,0,12.33-2.43Z" transform="translate(-69.84 -155.85)"/><path class="cls-2" d="M340.79,220.7c0,15.54-10.77,22.32-20.93,22.32-11.38,0-20.15-8.34-20.15-21.63,0-14.07,9.21-22.32,20.85-22.32C332.63,199.07,340.79,207.84,340.79,220.7Zm-33.35.43c0,9.21,5.3,16.16,12.77,16.16,7.3,0,12.77-6.87,12.77-16.33,0-7.12-3.56-16.16-12.6-16.16S307.44,213.14,307.44,221.13Z" transform="translate(-69.84 -155.85)"/><path class="cls-2" d="M350.43,211.4c0-4.34-.08-7.9-.34-11.37h6.68l.35,6.77h.26c2.35-4,6.25-7.73,13.2-7.73a12.41,12.41,0,0,1,11.9,8.43h.18a17.31,17.31,0,0,1,4.69-5.48,14.31,14.31,0,0,1,9.29-3c5.56,0,13.81,3.65,13.81,18.24v24.75H403v-23.8c0-8.07-3-12.94-9.12-12.94-4.34,0-7.73,3.22-9,7a12.48,12.48,0,0,0-.61,3.82v26h-7.47V216.88c0-6.69-2.95-11.56-8.77-11.56-4.78,0-8.25,3.83-9.47,7.65a10.62,10.62,0,0,0-.61,3.73v25.36h-7.47Z" transform="translate(-69.84 -155.85)"/></svg>